<?xml version="1.0" encoding="UTF-8"?>
<svg id="Layer_1" data-name="Layer 1" xmlns="http://www.w3.org/2000/svg" xmlns:xlink="http://www.w3.org/1999/xlink" viewBox="0 0 1501.32 310.31">
  <defs>
    <style>
      .cls-1 {
        fill: url(#linear-gradient-2);
      }

      .cls-2 {
        fill: #fff;
      }

      .cls-3 {
        fill: url(#linear-gradient-6);
      }

      .cls-4 {
        fill: url(#linear-gradient-5);
      }

      .cls-5 {
        fill: url(#linear-gradient-3);
      }

      .cls-6 {
        fill: url(#linear-gradient);
      }

      .cls-7 {
        fill: url(#linear-gradient-4);
      }

      .cls-8 {
        fill: #fbae17;
      }
    </style>
    <linearGradient id="linear-gradient" x1="143.95" y1="156.79" x2="178.39" y2="156.79" gradientUnits="userSpaceOnUse">
      <stop offset="0" stop-color="#16035e"/>
      <stop offset="1" stop-color="#6301e4"/>
    </linearGradient>
    <linearGradient id="linear-gradient-2" x1="178.33" y1="156.89" y2="156.89" xlink:href="#linear-gradient"/>
    <linearGradient id="linear-gradient-3" x1="81.1" y1="90.68" x2="161.43" y2="90.68" xlink:href="#linear-gradient"/>
    <linearGradient id="linear-gradient-4" y1="156.68" x2="144.02" y2="156.68" xlink:href="#linear-gradient"/>
    <linearGradient id="linear-gradient-5" x1="160.91" y1="219.93" x2="259.22" y2="219.93" xlink:href="#linear-gradient"/>
    <linearGradient id="linear-gradient-6" x1="62.76" y1="153.91" x2="241.74" y2="153.91" xlink:href="#linear-gradient"/>
  </defs>
  <g>
    <path class="cls-2" d="m504.14,89.57v78.67c0,4.7-.49,9.42-1.47,14.15-.98,4.73-2.6,9.29-4.87,13.66-2.26,4.37-5.22,8.45-8.89,12.23-3.66,3.78-8.18,7.08-13.57,9.91-5.39,2.83-11.7,5.05-18.93,6.65-7.23,1.61-15.52,2.41-24.87,2.41s-17.63-.79-24.87-2.37c-7.23-1.58-13.54-3.75-18.93-6.52-5.39-2.77-9.91-6.04-13.57-9.82-3.66-3.78-6.61-7.86-8.84-12.23-2.23-4.37-3.84-8.94-4.82-13.71-.98-4.76-1.47-9.56-1.47-14.38v-78.67h25.45v78.76c0,5.48.86,10.66,2.59,15.54,1.73,4.88,4.49,9.17,8.3,12.86,3.81,3.69,8.69,6.61,14.64,8.75,5.95,2.14,13.18,3.21,21.7,3.21s16.22-1.1,22.23-3.3c6.01-2.2,10.85-5.18,14.51-8.93,3.66-3.75,6.29-8.08,7.9-12.99,1.61-4.91,2.41-10.08,2.41-15.49v-78.4h25.36Z"/>
    <path class="cls-2" d="m523.03,94.03c0-1.49.3-2.92.89-4.29.59-1.37,1.53-2.55,2.81-3.53,1.28-.98,2.9-1.77,4.87-2.37,1.96-.59,4.32-.89,7.05-.89s5.18.3,7.14.89,3.57,1.4,4.82,2.41c1.25,1.01,2.17,2.19,2.77,3.53.59,1.34.89,2.75.89,4.24v.18c0,3.16-1.22,5.76-3.66,7.81-2.44,2.05-6.43,3.08-11.97,3.08s-9.45-1.03-11.92-3.08c-2.47-2.05-3.71-4.66-3.71-7.81v-.18Zm3.3,130.55v-104.92h24.91v104.92h-24.91Z"/>
    <path class="cls-2" d="m593.63,89.57l44.65,52.33,44.29-52.33h29.65l-57.15,65.72,61.88,69.29h-29.65l-49.29-55.54-49.02,55.54h-29.65l61.97-69.2-57.33-65.81h29.65Z"/>
    <path class="cls-2" d="m916.45,187.08c0,6.55-1.46,12.32-4.37,17.32-2.92,5-7.19,9.2-12.81,12.59-5.63,3.39-12.58,5.95-20.85,7.68s-17.74,2.59-28.4,2.59c-11.25,0-21.15-1.16-29.69-3.48-8.54-2.32-15.72-5.49-21.52-9.51-5.8-4.02-10.18-8.74-13.13-14.15-2.95-5.42-4.42-11.25-4.42-17.5h24.29c0,1.91.3,3.9.89,5.98.59,2.08,1.56,4.12,2.9,6.12,1.34,2,3.11,3.88,5.31,5.67,2.2,1.79,4.96,3.35,8.26,4.69,3.3,1.34,7.2,2.41,11.7,3.21,4.49.8,9.69,1.21,15.58,1.21,7.02,0,13.1-.52,18.22-1.56,5.12-1.04,9.33-2.51,12.63-4.42,3.3-1.91,5.74-4.18,7.32-6.83,1.58-2.65,2.37-5.55,2.37-8.71s-.63-5.64-1.88-7.81c-1.25-2.17-3.1-4.05-5.54-5.63-2.44-1.58-5.45-2.89-9.02-3.93-3.57-1.04-7.65-1.95-12.23-2.72l-35.45-5.98c-13.75-2.38-24.05-6.47-30.9-12.28-6.85-5.8-10.27-13.92-10.27-24.33,0-4.82,1.07-9.54,3.21-14.15,2.14-4.61,5.67-8.72,10.58-12.32,4.91-3.6,11.39-6.49,19.42-8.66,8.04-2.17,17.95-3.26,29.74-3.26s21.03,1.06,29.16,3.17c8.13,2.11,14.87,5.06,20.23,8.84,5.36,3.78,9.42,8.29,12.19,13.53,2.77,5.24,4.42,10.98,4.96,17.23h-22.86c-.54-3.51-1.59-6.79-3.17-9.82-1.58-3.04-4.02-5.68-7.32-7.95-3.3-2.26-7.62-4.03-12.95-5.31-5.33-1.28-12.01-1.92-20.05-1.92-7.38,0-13.48.64-18.31,1.92-4.82,1.28-8.63,2.93-11.43,4.96-2.8,2.02-4.76,4.24-5.89,6.65-1.13,2.41-1.7,4.75-1.7,7.01,0,2.8.5,5.24,1.52,7.32,1.01,2.08,2.59,3.9,4.73,5.45,2.14,1.55,4.87,2.84,8.17,3.88,3.3,1.04,7.25,1.92,11.83,2.63l34.11,5.54c7.26,1.25,13.68,2.86,19.24,4.82,5.56,1.96,10.25,4.42,14.06,7.37,3.81,2.95,6.68,6.46,8.62,10.54,1.93,4.08,2.9,8.86,2.9,14.33Z"/>
    <path class="cls-2" d="m961.51,94.3v25.36h41.43v16.61h-41.43v48.13c0,3.04.19,6.09.58,9.15.39,3.07,1.25,5.83,2.59,8.3,1.34,2.47,3.27,4.47,5.8,5.98,2.53,1.52,5.94,2.28,10.22,2.28,3.1,0,5.77-.1,8.04-.31,2.26-.21,4.26-.48,5.98-.8,1.73-.33,3.26-.68,4.6-1.07,1.34-.39,2.63-.76,3.88-1.12l1.16,14.73c-1.49.66-3.17,1.31-5.05,1.96-1.88.66-3.97,1.28-6.3,1.87-2.32.59-4.88,1.07-7.68,1.43-2.8.36-5.86.54-9.2.54-6.07,0-11.25-.55-15.54-1.65-4.29-1.1-7.9-2.65-10.85-4.64-2.95-1.99-5.28-4.37-7.01-7.14-1.73-2.77-3.04-5.82-3.93-9.15-.89-3.33-1.47-6.86-1.74-10.58-.27-3.72-.4-7.57-.4-11.56v-46.35h-17.86v-16.61h17.86v-25.36h24.82Z"/>
    <path class="cls-2" d="m1146.23,119.66v104.92h-24.91v-24.82c-2.08,4.29-4.79,8.13-8.13,11.52-3.33,3.39-7.13,6.28-11.39,8.66-4.26,2.38-8.93,4.2-14.02,5.45-5.09,1.25-10.43,1.88-16.03,1.88-7.92,0-14.7-.78-20.36-2.32-5.66-1.55-10.43-3.66-14.33-6.34-3.9-2.68-7.02-5.79-9.38-9.33-2.35-3.54-4.15-7.34-5.4-11.39-1.25-4.05-2.08-8.21-2.5-12.5-.42-4.29-.63-8.48-.63-12.59v-53.13h24.91v52.78c0,5.3.49,10.24,1.47,14.82.98,4.58,2.74,8.57,5.27,11.97,2.53,3.39,6,6.07,10.4,8.04,4.4,1.96,10.03,2.95,16.88,2.95,4.52,0,8.75-.58,12.68-1.74,3.93-1.16,7.48-2.75,10.67-4.78,3.18-2.02,6.01-4.39,8.48-7.1,2.47-2.71,4.55-5.6,6.25-8.66,1.7-3.06,2.98-6.22,3.84-9.47.86-3.24,1.29-6.44,1.29-9.6v-49.2h24.91Z"/>
    <path class="cls-2" d="m1263.62,224.58v-17.23c-1.91,2.98-4.18,5.7-6.83,8.17-2.65,2.47-5.77,4.58-9.38,6.34-3.6,1.76-7.71,3.11-12.32,4.06-4.61.95-9.78,1.43-15.49,1.43-9.41,0-17.71-1.34-24.91-4.02-7.2-2.68-13.26-6.38-18.17-11.12-4.91-4.73-8.63-10.28-11.16-16.65-2.53-6.37-3.79-13.27-3.79-20.72v-5.45c0-7.44,1.26-14.36,3.79-20.76,2.53-6.4,6.25-11.93,11.16-16.61,4.91-4.67,10.98-8.35,18.22-11.03,7.23-2.68,15.55-4.02,24.96-4.02,5.71,0,10.86.48,15.45,1.43,4.58.95,8.68,2.31,12.28,4.06,3.6,1.76,6.73,3.85,9.38,6.29,2.65,2.44,4.93,5.15,6.83,8.13v-52.33h24.91v140.02h-24.91Zm.09-53.76c0-4.88-.67-9.54-2.01-13.98-1.34-4.43-3.51-8.33-6.52-11.7-3.01-3.36-6.95-6.04-11.83-8.04-4.88-1.99-10.86-2.99-17.95-2.99s-12.62,1-17.5,2.99c-4.88,2-8.9,4.66-12.06,7.99-3.16,3.33-5.48,7.14-6.97,11.43-1.49,4.29-2.23,8.72-2.23,13.31v4.64c0,4.7.74,9.21,2.23,13.53,1.49,4.32,3.81,8.11,6.97,11.39,3.15,3.27,7.17,5.89,12.06,7.86,4.88,1.96,10.72,2.95,17.5,2.95s12.96-.98,17.82-2.95c4.85-1.96,8.79-4.61,11.83-7.95s5.24-7.17,6.61-11.52c1.37-4.35,2.05-8.93,2.05-13.75v-3.21Z"/>
    <path class="cls-2" d="m1310.11,94.03c0-1.49.3-2.92.89-4.29.59-1.37,1.53-2.55,2.81-3.53,1.28-.98,2.9-1.77,4.87-2.37,1.96-.59,4.32-.89,7.05-.89s5.18.3,7.14.89,3.57,1.4,4.82,2.41c1.25,1.01,2.17,2.19,2.77,3.53.59,1.34.89,2.75.89,4.24v.18c0,3.16-1.22,5.76-3.66,7.81-2.44,2.05-6.43,3.08-11.97,3.08s-9.45-1.03-11.92-3.08c-2.47-2.05-3.71-4.66-3.71-7.81v-.18Zm3.3,130.55v-104.92h24.91v104.92h-24.91Z"/>
    <path class="cls-2" d="m1354.01,169.58c0-7.44,1.23-14.38,3.71-20.81,2.47-6.43,6.34-12,11.61-16.7,5.27-4.7,12.01-8.39,20.23-11.07,8.21-2.68,18.1-4.02,29.65-4.02s21.36,1.34,29.6,4.02c8.25,2.68,15,6.38,20.27,11.12,5.27,4.73,9.14,10.3,11.61,16.7,2.47,6.4,3.71,13.32,3.71,20.76v5.09c0,7.44-1.24,14.36-3.71,20.76-2.47,6.4-6.34,11.97-11.61,16.7-5.27,4.73-12.03,8.45-20.27,11.16-8.25,2.71-18.11,4.06-29.6,4.06s-21.43-1.36-29.65-4.06c-8.22-2.71-14.96-6.43-20.23-11.16-5.27-4.73-9.14-10.3-11.61-16.7-2.47-6.4-3.71-13.32-3.71-20.76v-5.09Zm24.91,5.36c0,4.46.74,8.83,2.23,13.08,1.49,4.26,3.84,8.02,7.05,11.3s7.37,5.91,12.46,7.9c5.09,2,11.27,2.99,18.53,2.99s13.35-.98,18.44-2.95c5.09-1.96,9.24-4.58,12.46-7.86,3.22-3.27,5.57-7.04,7.06-11.3,1.49-4.26,2.23-8.68,2.23-13.26v-5.54c0-4.41-.71-8.71-2.14-12.9s-3.75-7.95-6.97-11.25c-3.21-3.3-7.37-5.97-12.46-7.99-5.09-2.02-11.3-3.04-18.62-3.04s-13.54,1-18.66,2.99c-5.12,2-9.29,4.63-12.5,7.9-3.22,3.27-5.54,7.02-6.97,11.25-1.43,4.23-2.14,8.54-2.14,12.95v5.72Z"/>
  </g>
  <g>
    <circle class="cls-8" cx="161.22" cy="34.86" r="20.11"/>
    <g>
      <path class="cls-6" d="m143.98,154.04c-.02,1.07-.03,2.14-.03,3.22,0,.69,0,1.38.02,2.08.03-1,.05-2,.05-3.01,0-.76,0-1.52-.03-2.28Zm34.39.21c-.03,1-.04,2.01-.04,3.01,0,.76,0,1.52.03,2.28.03-1.07.04-2.14.04-3.22,0-.69,0-1.38-.03-2.08Z"/>
      <path class="cls-1" d="m178.37,154.24c-.03,1-.04,2.01-.04,3.01,0,.76,0,1.52.03,2.28.03-1.07.04-2.14.04-3.22,0-.69,0-1.38-.03-2.08Z"/>
      <path class="cls-5" d="m161.43,91c-2.57,4.53-4.89,9.22-6.93,14.05-6.58,15.56-10.11,32.02-10.51,48.98-.41-18.31-5.78-35.41-14.82-50.02-11.21-18.12-28.05-32.4-48.07-40.38V27.33c5.21,1.48,10.35,3.29,15.38,5.42,15.97,6.76,30.31,16.42,42.62,28.74,2.59,2.59,5.06,5.26,7.41,8.03,5.68,6.67,10.66,13.85,14.92,21.47Z"/>
    </g>
    <g>
      <path class="cls-6" d="m143.98,154.04c-.02,1.07-.03,2.14-.03,3.22,0,.69,0,1.38.02,2.08.03-1,.05-2,.05-3.01,0-.76,0-1.52-.03-2.28Zm0,0c-.02,1.07-.03,2.14-.03,3.22,0,.69,0,1.38.02,2.08.03-1,.05-2,.05-3.01,0-.76,0-1.52-.03-2.28Zm34.39.21c-.03,1-.04,2.01-.04,3.01,0,.76,0,1.52.03,2.28.03-1.07.04-2.14.04-3.22,0-.69,0-1.38-.03-2.08Zm-34.39-.21c-.02,1.07-.03,2.14-.03,3.22,0,.69,0,1.38.02,2.08.03-1,.05-2,.05-3.01,0-.76,0-1.52-.03-2.28Zm34.39.21c-.03,1-.04,2.01-.04,3.01,0,.76,0,1.52.03,2.28.03-1.07.04-2.14.04-3.22,0-.69,0-1.38-.03-2.08Zm-34.39-.21c-.02,1.07-.03,2.14-.03,3.22,0,.69,0,1.38.02,2.08.03-1,.05-2,.05-3.01,0-.76,0-1.52-.03-2.28Zm34.39.21c-.03,1-.04,2.01-.04,3.01,0,.76,0,1.52.03,2.28.03-1.07.04-2.14.04-3.22,0-.69,0-1.38-.03-2.08Zm0,0c-.03,1-.04,2.01-.04,3.01,0,.76,0,1.52.03,2.28.03-1.07.04-2.14.04-3.22,0-.69,0-1.38-.03-2.08Zm-34.39-.21c-.02,1.07-.03,2.14-.03,3.22,0,.69,0,1.38.02,2.08.03-1,.05-2,.05-3.01,0-.76,0-1.52-.03-2.28Zm34.39.21c-.03,1-.04,2.01-.04,3.01,0,.76,0,1.52.03,2.28.03-1.07.04-2.14.04-3.22,0-.69,0-1.38-.03-2.08Zm-34.39-.21c-.02,1.07-.03,2.14-.03,3.22,0,.69,0,1.38.02,2.08.03-1,.05-2,.05-3.01,0-.76,0-1.52-.03-2.28Zm34.39.21c-.03,1-.04,2.01-.04,3.01,0,.76,0,1.52.03,2.28.03-1.07.04-2.14.04-3.22,0-.69,0-1.38-.03-2.08Zm-34.39-.21c-.02,1.07-.03,2.14-.03,3.22,0,.69,0,1.38.02,2.08.03-1,.05-2,.05-3.01,0-.76,0-1.52-.03-2.28Zm34.39.21c-.03,1-.04,2.01-.04,3.01,0,.76,0,1.52.03,2.28.03-1.07.04-2.14.04-3.22,0-.69,0-1.38-.03-2.08Zm-34.39-.21c-.02,1.07-.03,2.14-.03,3.22,0,.69,0,1.38.02,2.08.03-1,.05-2,.05-3.01,0-.76,0-1.52-.03-2.28Zm0,0c-.02,1.07-.03,2.14-.03,3.22,0,.69,0,1.38.02,2.08.03-1,.05-2,.05-3.01,0-.76,0-1.52-.03-2.28Z"/>
      <path class="cls-7" d="m143.98,154.04c-.02,1.07-.03,2.14-.03,3.22,0,.69,0,1.38.02,2.08.03-1,.05-2,.05-3.01,0-.76,0-1.52-.03-2.28Z"/>
      <path class="cls-4" d="m259.22,255.21c-10.23,10.18-21.8,18.59-34.52,25.11-13.1-5.68-25.08-13.33-35.73-22.82-1.96-1.74-3.87-3.55-5.74-5.41-2.59-2.59-5.06-5.26-7.41-8.03-2.02-2.37-3.96-4.81-5.8-7.31-3.34-4.52-6.38-9.25-9.12-14.16,2.57-4.52,4.89-9.21,6.93-14.05,6.58-15.56,10.11-32.02,10.51-48.98.41,18.31,5.78,35.41,14.82,50.02,3.32,5.37,7.14,10.41,11.39,15.04,5.6,6.11,11.95,11.51,18.89,16.08,10.68,7.01,22.77,12.03,35.76,14.53Z"/>
      <path class="cls-3" d="m241.74,28.12v36.25c-19.98,7.84-36.84,21.96-48.14,39.9-9.17,14.57-14.68,31.66-15.22,49.98-.03,1-.04,2-.04,3.01,0,.76,0,1.53.03,2.29-.4,16.96-3.93,33.42-10.51,48.98-2.05,4.84-4.36,9.53-6.93,14.05-2.77,4.87-5.84,9.55-9.19,14.04-1.87,2.5-3.84,4.94-5.9,7.32-2.14,2.47-4.38,4.88-6.71,7.21-2.08,2.08-4.22,4.09-6.42,6.01-10.67,9.38-22.66,16.93-35.76,22.53-12.35-6.48-23.61-14.78-33.58-24.75-.2-.2-.4-.4-.6-.61,12.96-2.43,25.05-7.39,35.72-14.33,6.96-4.52,13.32-9.89,18.94-15.95,4.21-4.54,8.01-9.48,11.32-14.75,9.17-14.57,14.68-31.66,15.23-49.98.03-1,.04-2,.04-3.01,0-.76,0-1.53-.03-2.29.4-16.96,3.93-33.42,10.51-48.98,2.05-4.84,4.36-9.53,6.93-14.05,4.31-7.59,9.35-14.73,15.09-21.36,2.14-2.47,4.38-4.88,6.71-7.21,12.31-12.31,26.65-21.98,42.62-28.74,5.2-2.2,10.5-4.06,15.88-5.57Z"/>
    </g>
    <g>
      <path class="cls-8" d="m80.62,222.77c-10.64,5.84-22.82,9.21-35.76,9.3-4.33-6.7-8.08-13.78-11.22-21.2-7.23-17.11-10.9-35.27-10.9-53.98v-73.19c3.51-1.04,7.12-1.83,10.82-2.36,3.5-.5,7.08-.76,10.72-.76s7.21.26,10.71.76l2.13.33v75.23c0,24.96,8.81,47.91,23.5,65.88Z"/>
      <path class="cls-8" d="m194.62,291.56c-10.79,2.66-21.9,4-33.2,4s-23.4-1.46-34.63-4.36c10.59-6.48,20.39-14.2,29.28-23.1,1.6-1.6,3.16-3.23,4.68-4.88,1.79,1.98,3.63,3.92,5.53,5.81,8.63,8.63,18.12,16.16,28.35,22.52Z"/>
      <path class="cls-8" d="m300.09,84.78v72.1c0,18.72-3.67,36.88-10.9,53.99-3.29,7.77-7.24,15.16-11.82,22.13-12.98-.11-25.19-3.51-35.84-9.41,15.1-18.08,24.18-41.36,24.18-66.71v-74.37c4.02-.66,8.14-1,12.34-1,7.66,0,15.05,1.15,22.03,3.27Z"/>
    </g>
  </g>
</svg>